<svg width="32" height="38" viewBox="0 0 32 38" fill="none" xmlns="http://www.w3.org/2000/svg">
<path d="M16.095 37.1917C13.7924 37.1917 11.7999 34.7404 11.1697 31.1891H0.65954C0.395781 31.1891 0.156182 31.0051 0.0532335 30.721C-0.0507926 30.4375 0.000297126 30.1096 0.183266 29.885C0.861283 29.0575 1.50668 28.4152 2.07667 27.8479C3.47717 26.4539 4.32308 25.6121 4.32308 23.4388V16.2501C4.35062 10.0642 7.87751 4.56146 12.7729 2.95844C13.0102 1.70201 13.871 0 15.9991 0C18.1052 0 18.9763 1.75663 19.2208 3.04073C24.1433 4.6495 27.6873 10.1183 27.7125 16.2476V23.6756C27.7125 25.7821 28.461 26.4959 29.8169 27.789C30.415 28.3587 31.0918 29.0043 31.8166 29.8859C31.999 30.1091 32.0513 30.4377 31.9466 30.7219C31.8431 31.0055 31.6041 31.19 31.3403 31.19H21.0191C20.389 34.7406 18.3975 37.1917 16.095 37.1917ZM12.5841 31.4663C13.1745 33.938 14.575 35.651 16.095 35.651C17.6144 35.651 19.0138 33.938 19.6048 31.4663H12.5841ZM2.30842 29.6479H29.6731C29.4342 29.4105 29.2029 29.1901 28.9836 28.9824C27.5374 27.6031 26.3946 26.5139 26.3946 23.6756V16.2501C26.3715 10.6501 23.045 5.66733 18.4839 4.40838C18.2024 4.33058 17.9976 4.0476 17.9771 3.71072C17.9639 3.49332 17.7789 1.53995 16 1.53995C14.1688 1.53995 14.0312 3.40277 14.0229 3.61622C14.0075 3.95831 13.8004 4.24704 13.5151 4.32483C8.97948 5.5748 5.66911 10.5923 5.64433 16.2546V23.4396C5.64433 26.3242 4.38755 27.5734 2.93303 29.0215C2.73314 29.219 2.52385 29.4274 2.30842 29.6479Z" fill="#333333"/>
</svg>