
<svg width="26" height="10" viewBox="0 0 26 10" fill="none" xmlns="http://www.w3.org/2000/svg">
<path d="M9 3C9 1.89543 9.89543 1 11 1H15C16.1046 1 17 1.89543 17 3V7C17 8.10457 16.1046 9 15 9H11C9.89543 9 9 8.10457 9 7V3Z" fill="#49546A" stroke="#E7E9EC" stroke-width="2" stroke-linecap="round" stroke-linejoin="round"/>
<path d="M1 3C1 1.89543 1.89543 1 3 1H7C8.10457 1 9 1.89543 9 3V7C9 8.10457 8.10457 9 7 9H3C1.89543 9 1 8.10457 1 7V3Z" fill="#49546A" stroke="#E7E9EC" stroke-width="2" stroke-linecap="round" stroke-linejoin="round"/>
<path d="M17 3C17 1.89543 17.8954 1 19 1H23C24.1046 1 25 1.89543 25 3V7C25 8.10457 24.1046 9 23 9H19C17.8954 9 17 8.10457 17 7V3Z" fill="#49546A" stroke="#E7E9EC" stroke-width="2" stroke-linecap="round" stroke-linejoin="round"/>
</svg>