<svg width="212" height="34" viewBox="0 0 212 34" fill="none" xmlns="http://www.w3.org/2000/svg">
<path d="M7.732 19.54H15.892L17.66 26H22.93L14.838 0.84H8.922L0.864 26H5.964L7.732 19.54ZM14.056 12.876L14.804 15.63H8.82L9.568 12.876C10.35 10.258 11.064 7.402 11.71 4.648H11.846C12.628 7.368 13.274 10.258 14.056 12.876ZM23.6464 0.84L31.1944 16.786V26H36.2264V16.786L43.8084 0.84H38.5724L36.0564 6.96C35.3424 8.864 34.5944 10.598 33.8124 12.536H33.6764C32.8944 10.598 32.2144 8.864 31.5004 6.96L28.9844 0.84H23.6464ZM58.0563 26.476C64.2103 26.476 67.7803 23.042 67.7803 14.678V0.84H62.9523V15.12C62.9523 20.39 61.0483 22.124 58.0563 22.124C55.0643 22.124 53.2963 20.39 53.2963 15.12V0.84H48.2643V14.678C48.2643 23.042 51.9363 26.476 58.0563 26.476ZM93.0994 26.442C96.3634 26.442 98.8454 25.15 100.885 22.838L98.7774 20.356C97.2814 21.988 95.5474 23.008 93.2354 23.008C88.8154 23.008 86.0274 19.37 86.0274 13.42C86.0274 7.572 88.9854 3.934 93.3374 3.934C95.3774 3.934 96.9074 4.852 98.2334 6.178L100.375 3.662C98.8454 1.996 96.3974 0.499998 93.2694 0.499998C86.9114 0.499998 81.9814 5.362 81.9814 13.556C81.9814 21.716 86.8094 26.442 93.0994 26.442ZM109.368 26.442C111.68 26.442 113.584 25.422 115.318 23.96H115.42L115.76 26H118.956V14.746C118.956 9.68 116.814 6.824 112.156 6.824C109.164 6.824 106.614 7.912 104.676 9.136L105.832 11.992C107.43 10.938 109.436 10.02 111.476 10.02C114.23 10.02 115.046 11.89 115.046 14.1C111.204 14.372 108.382 14.678 106.478 15.732C104.54 16.922 103.86 18.962 103.86 21.036C103.86 24.334 106.138 26.442 109.368 26.442ZM110.558 23.348C108.892 23.348 107.634 22.668 107.634 20.764C107.634 19.982 107.498 19.098 108.484 18.18C109.674 17.092 111.442 17.092 115.046 16.65V21.274C113.516 22.668 112.19 23.348 110.558 23.348ZM124.538 7.3V26H128.414V12.74C129.978 11.04 131.372 10.19 132.63 10.19C134.806 10.19 135.758 11.448 135.758 14.712V26H139.668V12.74C141.232 11.04 142.626 10.19 143.884 10.19C146.06 10.19 147.012 11.448 147.012 14.712V26H150.922V14.236C150.922 9.442 149.154 6.824 145.176 6.824C142.83 6.824 140.994 8.218 139.09 10.258C138.274 8.082 136.778 6.824 133.922 6.824C131.61 6.824 129.74 8.184 128.142 9.918H128.04L127.734 7.3H124.538ZM156.579 7.3V33.582H160.455V27.53L160.353 24.334C161.951 25.694 163.617 26.442 165.283 26.442C169.499 26.442 173.341 22.736 173.341 16.344C173.341 10.598 170.689 6.824 165.929 6.824C163.855 6.824 161.815 7.98 160.183 9.34H160.081L159.775 7.3H156.579ZM164.535 23.212C163.345 23.212 161.917 22.77 160.455 21.512V12.366C162.053 10.836 163.447 10.088 164.909 10.088C168.037 10.088 169.295 12.434 169.295 16.412C169.295 20.798 167.255 23.212 164.535 23.212ZM183.436 26.442C186.02 26.442 187.822 25.218 189.556 23.178H189.658L189.964 26H193.16V7.3H189.25V20.288C187.72 22.226 186.496 23.076 184.762 23.076C182.552 23.076 181.634 21.852 181.634 18.588V7.3H177.724V19.064C177.724 23.858 179.458 26.442 183.436 26.442ZM204.145 26.442C208.769 26.442 211.251 23.892 211.251 20.764C211.251 17.228 208.361 16.072 205.743 15.086C203.703 14.338 201.765 13.726 201.765 12.128C201.765 10.802 202.717 9.816 204.757 9.816C206.355 9.816 207.613 10.496 208.939 11.448L210.775 9.034C209.245 7.844 207.273 6.824 204.689 6.824C200.575 6.824 198.059 9.17 198.059 12.298C198.059 15.494 200.949 16.752 203.397 17.738C205.437 18.554 207.545 19.234 207.545 20.968C207.545 22.43 206.559 23.484 204.247 23.484C202.207 23.484 200.609 22.668 198.943 21.342L197.107 23.858C198.909 25.354 201.561 26.442 204.145 26.442Z" fill="#26409A"/>
</svg>