
<svg width="54" height="45" viewBox="0 0 54 45" fill="none" xmlns="http://www.w3.org/2000/svg">
<path d="M49.1043 14.8419C46.5444 12.3013 42.9634 10.4922 39.0208 9.74748C38.545 9.65792 38.0862 9.97057 37.9963 10.4465C37.9064 10.9223 38.2193 11.381 38.6953 11.4709C46.2031 12.889 51.4467 18.1069 51.4467 24.1598C51.4467 29.145 47.8978 33.6255 42.1851 35.8529C41.8935 35.9667 41.6846 36.2272 41.637 36.5366C41.2904 38.7873 41.7635 41.078 42.9195 42.9862C40.3953 42.312 38.3508 40.3749 37.5556 37.7501C37.4354 37.3533 37.0526 37.0942 36.6404 37.1308C36.0211 37.1845 35.3968 37.2119 34.785 37.2119C29.3294 37.2119 24.2085 35.1073 21.0865 31.5819C20.7655 31.2193 20.2113 31.1856 19.8486 31.5067C19.486 31.8278 19.4524 32.382 19.7734 32.7446C23.2232 36.64 28.8351 38.9658 34.785 38.9658C35.222 38.9658 35.6647 38.9529 36.1077 38.9274C36.7435 40.567 37.837 42.0268 39.238 43.0904C40.8837 44.3397 42.8453 45 44.9103 45C45.2642 45 45.5834 44.7872 45.7196 44.4605C45.8558 44.1338 45.7823 43.7573 45.5332 43.5058C43.9162 41.8734 43.1041 39.5801 43.3111 37.2891C46.143 36.1002 48.5441 34.3387 50.2791 32.1725C52.1903 29.7862 53.2005 27.0155 53.2005 24.1598C53.2005 20.7726 51.7459 17.4634 49.1043 14.8419Z" fill="#3F8CEE"/>
<path d="M36.8311 14.8059C36.8311 10.8123 34.889 7.07063 31.3624 4.26995C27.8953 1.51639 23.2972 0 18.4155 0C13.5335 0 8.93534 1.51639 5.46842 4.26995C1.94199 7.07063 0 10.8123 0 14.8059C0 17.6616 1.01022 20.4324 2.92135 22.8186C4.65627 24.9847 7.05754 26.7463 9.88933 27.9352C10.0963 30.2262 9.28424 32.5195 7.66718 34.1519C7.41813 34.4033 7.34459 34.7799 7.4808 35.1066C7.61702 35.4333 7.93634 35.6461 8.29015 35.6461C10.3553 35.6461 12.3167 34.9858 13.9624 33.7365C15.3634 32.673 16.457 31.2131 17.0927 29.5735C17.5357 29.599 17.9784 29.6119 18.4154 29.6119C23.2972 29.6119 27.8953 28.0955 31.3623 25.3419C34.889 22.5411 36.8311 18.7994 36.8311 14.8059ZM16.5601 27.7767C16.1466 27.7406 15.7651 27.9991 15.6449 28.3961C14.8497 31.0208 12.8053 32.9579 10.281 33.6321C11.437 31.724 11.9101 29.4332 11.5636 27.1824C11.516 26.873 11.307 26.6125 11.0154 26.4987C5.30274 24.2716 1.75386 19.791 1.75386 14.8059C1.75386 7.60895 9.22824 1.75386 18.4155 1.75386C27.6029 1.75386 35.0772 7.60895 35.0772 14.8059C35.0772 22.0028 27.6029 27.8579 18.4155 27.8579C17.8037 27.8579 17.1794 27.8306 16.5601 27.7767Z" fill="#3F8CEE"/>
</svg>
