
<svg width="45" height="50" viewBox="0 0 45 50" fill="none" xmlns="http://www.w3.org/2000/svg">
<path d="M42.5 0H32.5C31.1198 0 30 1.11972 30 2.49997V25.8333C30 27.2135 31.1198 28.3333 32.5 28.3333H34.1667V36.6668C34.1667 37.127 34.5398 37.5 35 37.5V39.1665C35 42.3821 32.3823 44.9999 29.1667 44.9999H15.8333C12.6177 44.9999 9.99998 42.3821 9.99998 39.1665V37.5C10.4603 37.5 10.8333 37.1269 10.8333 36.6668V28.3333H13.3332C14.2543 28.3333 14.9999 27.5876 14.9999 26.6666V9.99998C14.9999 9.07892 14.2543 8.3333 13.3332 8.3333H12.5V1.66668C12.5 0.745623 11.7543 0 10.8333 0H4.16665C3.24549 0 2.49997 0.745623 2.49997 1.66668V8.3334H1.66668C0.745622 8.3334 0 9.07902 0 10.0001V26.6667C0 27.5877 0.745622 28.3334 1.66668 28.3334H4.16665V36.6669C4.16665 37.1271 4.53976 37.5001 4.99994 37.5001V39.1666C4.99994 45.141 9.8589 50 15.8333 50H29.1667C35.1411 50 40 45.141 40 39.1666V37.5001C40.4603 37.5001 40.8333 37.127 40.8333 36.6669V28.3334H42.5C43.8802 28.3334 45 27.2136 45 25.8334V2.49997C45 1.11972 43.8802 0 42.5 0ZM4.16665 1.66668H10.8334V8.3334H4.16665V1.66668ZM1.66658 9.99998H3.33326H11.6666H13.3332V26.6667H1.66658V9.99998ZM35.8333 35.8334V28.3336H39.1666V35.8334H35.8333ZM9.16659 35.8334H5.83323V28.3336H9.16659V35.8334ZM38.3333 39.1667C38.3333 44.2207 34.2206 48.3334 29.1667 48.3334H15.8333C10.7794 48.3334 6.66662 44.2207 6.66662 39.1667V37.5002H8.3333V39.1667C8.3333 43.3028 11.6972 46.6667 15.8333 46.6667H29.1667C33.3027 46.6667 36.6667 43.3028 36.6667 39.1667V37.5002H38.3333V39.1667ZM43.3333 25.8334C43.3333 26.2932 42.9597 26.6667 42.5 26.6667H32.5C32.0402 26.6667 31.6667 26.2931 31.6667 25.8334V2.49997C31.6667 2.04019 32.0403 1.66668 32.5 1.66668H42.5C42.9598 1.66668 43.3333 2.04029 43.3333 2.49997V25.8334Z" fill="#3F8CEE"/>
</svg>
