<svg width="10" height="26" viewBox="0 0 10 26" fill="none" xmlns="http://www.w3.org/2000/svg">
<path d="M1 3C1 1.89543 1.89543 1 3 1H7C8.10457 1 9 1.89543 9 3V7C9 8.10457 8.10457 9 7 9H3C1.89543 9 1 8.10457 1 7V3Z" fill="#49546A" stroke="#E7E9EC" stroke-width="2" stroke-linecap="round" stroke-linejoin="round"/>
<path d="M1 19C1 17.8954 1.89543 17 3 17H7C8.10457 17 9 17.8954 9 19V23C9 24.1046 8.10457 25 7 25H3C1.89543 25 1 24.1046 1 23V19Z" fill="#49546A" stroke="#E7E9EC" stroke-width="2" stroke-linecap="round" stroke-linejoin="round"/>
<path d="M1 11C1 9.89543 1.89543 9 3 9H7C8.10457 9 9 9.89543 9 11V15C9 16.1046 8.10457 17 7 17H3C1.89543 17 1 16.1046 1 15V11Z" fill="#49546A" stroke="#E7E9EC" stroke-width="2" stroke-linecap="round" stroke-linejoin="round"/>
</svg>
