<svg width="18" height="16" viewBox="0 0 18 16" fill="none" xmlns="http://www.w3.org/2000/svg">
<path d="M3.62055 0C3.42845 0 3.27273 0.155727 3.27273 0.347826C3.27273 0.539925 3.117 0.695652 2.9249 0.695652H1.63636C0.732625 0.695652 0 1.42828 0 2.33202V14C0 15.1046 0.895431 16 2 16H16C17.1046 16 18 15.1046 18 14V2.33202C18 1.42828 17.2674 0.695652 16.3636 0.695652H15.0751C14.883 0.695652 14.7273 0.539925 14.7273 0.347826C14.7273 0.155727 14.5715 0 14.3794 0H13.4387C13.2466 0 13.0909 0.155727 13.0909 0.347826C13.0909 0.539925 12.9352 0.695652 12.7431 0.695652H5.25692C5.06482 0.695652 4.90909 0.539925 4.90909 0.347826C4.90909 0.155727 4.75336 0 4.56126 0H3.62055ZM1.63636 2.78261C1.63636 2.39841 1.94782 2.08696 2.33202 2.08696H2.9249C3.117 2.08696 3.27273 2.24268 3.27273 2.43478C3.27273 2.62688 3.42845 2.78261 3.62055 2.78261H4.56126C4.75336 2.78261 4.90909 2.62688 4.90909 2.43478C4.90909 2.24268 5.06482 2.08696 5.25692 2.08696H12.7431C12.9352 2.08696 13.0909 2.24268 13.0909 2.43478C13.0909 2.62688 13.2466 2.78261 13.4387 2.78261H14.3794C14.5715 2.78261 14.7273 2.62688 14.7273 2.43478C14.7273 2.24268 14.883 2.08696 15.0751 2.08696H15.668C16.0522 2.08696 16.3636 2.39841 16.3636 2.78261C16.3636 3.16681 16.0522 3.47826 15.668 3.47826H2.33202C1.94782 3.47826 1.63636 3.16681 1.63636 2.78261ZM1.63636 6.86956C1.63636 5.76499 2.53179 4.86957 3.63636 4.86957H14.3636C15.4682 4.86957 16.3636 5.765 16.3636 6.86957V12.6087C16.3636 13.7133 15.4682 14.6087 14.3636 14.6087H3.63636C2.5318 14.6087 1.63636 13.7133 1.63636 12.6087V6.86956ZM7.24111 6.26087C6.85691 6.26087 6.54545 6.57232 6.54545 6.95652C6.54545 7.34072 6.85691 7.65217 7.24111 7.65217H7.48617C7.87036 7.65217 8.18182 7.34072 8.18182 6.95652C8.18182 6.57232 7.87036 6.26087 7.48617 6.26087H7.24111ZM10.5138 6.26087C10.1296 6.26087 9.81818 6.57232 9.81818 6.95652C9.81818 7.34072 10.1296 7.65217 10.5138 7.65217H10.7589C11.1431 7.65217 11.4545 7.34072 11.4545 6.95652C11.4545 6.57232 11.1431 6.26087 10.7589 6.26087H10.5138ZM13.7866 6.26087C13.4024 6.26087 13.0909 6.57232 13.0909 6.95652C13.0909 7.34072 13.4024 7.65217 13.7866 7.65217H14.0316C14.4158 7.65217 14.7273 7.34072 14.7273 6.95652C14.7273 6.57232 14.4158 6.26087 14.0316 6.26087H13.7866ZM3.96838 9.04348C3.58418 9.04348 3.27273 9.35493 3.27273 9.73913C3.27273 10.1233 3.58418 10.4348 3.96838 10.4348H4.21344C4.59764 10.4348 4.90909 10.1233 4.90909 9.73913C4.90909 9.35493 4.59764 9.04348 4.21344 9.04348H3.96838ZM7.24111 9.04348C6.85691 9.04348 6.54545 9.35493 6.54545 9.73913C6.54545 10.1233 6.85691 10.4348 7.24111 10.4348H7.48617C7.87036 10.4348 8.18182 10.1233 8.18182 9.73913C8.18182 9.35493 7.87036 9.04348 7.48617 9.04348H7.24111ZM10.5138 9.04348C10.1296 9.04348 9.81818 9.35493 9.81818 9.73913C9.81818 10.1233 10.1296 10.4348 10.5138 10.4348H10.7589C11.1431 10.4348 11.4545 10.1233 11.4545 9.73913C11.4545 9.35493 11.1431 9.04348 10.7589 9.04348H10.5138ZM13.7866 9.04348C13.4024 9.04348 13.0909 9.35493 13.0909 9.73913C13.0909 10.1233 13.4024 10.4348 13.7866 10.4348H14.0316C14.4158 10.4348 14.7273 10.1233 14.7273 9.73913C14.7273 9.35493 14.4158 9.04348 14.0316 9.04348H13.7866ZM3.96838 11.8261C3.58418 11.8261 3.27273 12.1375 3.27273 12.5217C3.27273 12.9059 3.58418 13.2174 3.96838 13.2174H4.21344C4.59764 13.2174 4.90909 12.9059 4.90909 12.5217C4.90909 12.1375 4.59764 11.8261 4.21344 11.8261H3.96838ZM7.24111 11.8261C6.85691 11.8261 6.54545 12.1375 6.54545 12.5217C6.54545 12.9059 6.85691 13.2174 7.24111 13.2174H7.48617C7.87036 13.2174 8.18182 12.9059 8.18182 12.5217C8.18182 12.1375 7.87036 11.8261 7.48617 11.8261H7.24111ZM10.5138 11.8261C10.1296 11.8261 9.81818 12.1375 9.81818 12.5217C9.81818 12.9059 10.1296 13.2174 10.5138 13.2174H10.7589C11.1431 13.2174 11.4545 12.9059 11.4545 12.5217C11.4545 12.1375 11.1431 11.8261 10.7589 11.8261H10.5138Z" fill="black"/>
</svg>
