<svg width="54" height="54" viewBox="0 0 54 54" fill="none" xmlns="http://www.w3.org/2000/svg">
<path d="M27 0C12.0899 0 0 12.088 0 27C0 41.912 12.0887 54 27 54C41.9125 54 54 41.912 54 27C54 12.088 41.9125 0 27 0ZM27 8.07331C31.9337 8.07331 35.9316 12.0726 35.9316 17.0041C35.9316 21.9368 31.9337 25.9349 27 25.9349C22.0687 25.9349 18.0708 21.9368 18.0708 17.0041C18.0708 12.0726 22.0687 8.07331 27 8.07331ZM26.9941 46.9407C22.0734 46.9407 17.5667 45.1487 14.0906 42.1824C13.2438 41.4601 12.7552 40.401 12.7552 39.2897C12.7552 34.2882 16.8029 30.2853 21.8054 30.2853H32.197C37.2006 30.2853 41.2329 34.2882 41.2329 39.2897C41.2329 40.4022 40.7467 41.4589 39.8987 42.1812C36.4238 45.1487 31.9159 46.9407 26.9941 46.9407Z" fill="#D9D9D9"/>
</svg>
