<svg width="41" height="50" viewBox="0 0 41 50" fill="none" xmlns="http://www.w3.org/2000/svg">
<circle cx="18.5" cy="31.5" r="17.8" fill="white" stroke="#333333" stroke-width="1.4"/>
<path d="M12.5 24C12.5 23.7239 12.7239 23.5 13 23.5H24C24.2761 23.5 24.5 23.7239 24.5 24V38C24.5 38.2761 24.2761 38.5 24 38.5H13C12.7239 38.5 12.5 38.2761 12.5 38V24Z" fill="white" stroke="black"/>
<line x1="14" y1="25.75" x2="19" y2="25.75" stroke="black" stroke-width="0.5"/>
<line x1="14" y1="31.75" x2="22" y2="31.75" stroke="black" stroke-width="0.5"/>
<line x1="14" y1="28.75" x2="22" y2="28.75" stroke="black" stroke-width="0.5"/>
<line x1="14" y1="34.75" x2="22" y2="34.75" stroke="black" stroke-width="0.5"/>
<path d="M7.82322 39.1768C7.92085 39.2744 8.07914 39.2744 8.17678 39.1768L9.76777 37.5858C9.8654 37.4882 9.8654 37.3299 9.76777 37.2322C9.67014 37.1346 9.51184 37.1346 9.41421 37.2322L8 38.6464L6.58579 37.2322C6.48815 37.1346 6.32986 37.1346 6.23223 37.2322C6.1346 37.3299 6.1346 37.4882 6.23223 37.5858L7.82322 39.1768ZM7.75 23L7.75 39L8.25 39L8.25 23L7.75 23Z" fill="black"/>
<path d="M29.1768 22.8232C29.0791 22.7256 28.9209 22.7256 28.8232 22.8232L27.2322 24.4142C27.1346 24.5118 27.1346 24.6701 27.2322 24.7678C27.3299 24.8654 27.4882 24.8654 27.5858 24.7678L29 23.3536L30.4142 24.7678C30.5118 24.8654 30.6701 24.8654 30.7678 24.7678C30.8654 24.6701 30.8654 24.5118 30.7678 24.4142L29.1768 22.8232ZM29.25 39L29.25 23L28.75 23L28.75 39L29.25 39Z" fill="black"/>
<circle cx="29" cy="12" r="12" fill="#E51840"/>
<path d="M31.26 16V15.26H29.82V8.63H29.09L27.12 10.33L27.61 10.92L28.94 9.73C28.93 9.8 28.93 9.89 28.93 9.98V15.26H27.3V16H31.26Z" fill="white"/>
</svg>