<svg width="37" height="37" viewBox="0 0 37 37" fill="none" xmlns="http://www.w3.org/2000/svg">
<circle cx="18.5" cy="18.5" r="17.8" fill="white" stroke="#333333" stroke-width="1.4"/>
<path d="M12.5 11C12.5 10.7239 12.7239 10.5 13 10.5H24C24.2761 10.5 24.5 10.7239 24.5 11V25C24.5 25.2761 24.2761 25.5 24 25.5H13C12.7239 25.5 12.5 25.2761 12.5 25V11Z" fill="white" stroke="black"/>
<line x1="14" y1="12.75" x2="19" y2="12.75" stroke="black" stroke-width="0.5"/>
<line x1="14" y1="18.75" x2="22" y2="18.75" stroke="black" stroke-width="0.5"/>
<line x1="14" y1="15.75" x2="22" y2="15.75" stroke="black" stroke-width="0.5"/>
<line x1="14" y1="21.75" x2="22" y2="21.75" stroke="black" stroke-width="0.5"/>
<path d="M7.82322 26.1768C7.92085 26.2744 8.07914 26.2744 8.17678 26.1768L9.76777 24.5858C9.8654 24.4882 9.8654 24.3299 9.76777 24.2322C9.67014 24.1346 9.51184 24.1346 9.41421 24.2322L8 25.6464L6.58579 24.2322C6.48815 24.1346 6.32986 24.1346 6.23223 24.2322C6.1346 24.3299 6.1346 24.4882 6.23223 24.5858L7.82322 26.1768ZM7.75 10L7.75 26L8.25 26L8.25 10L7.75 10Z" fill="black"/>
<path d="M29.1768 9.82322C29.0791 9.72559 28.9209 9.72559 28.8232 9.82322L27.2322 11.4142C27.1346 11.5118 27.1346 11.6701 27.2322 11.7678C27.3299 11.8654 27.4882 11.8654 27.5858 11.7678L29 10.3536L30.4142 11.7678C30.5118 11.8654 30.6701 11.8654 30.7678 11.7678C30.8654 11.6701 30.8654 11.5118 30.7678 11.4142L29.1768 9.82322ZM29.25 26L29.25 10L28.75 10L28.75 26L29.25 26Z" fill="black"/>
</svg>
