
<svg width="50" height="50" viewBox="0 0 50 50" fill="none" xmlns="http://www.w3.org/2000/svg">
<path d="M42.6777 7.32234C37.9557 2.60043 31.6778 0 25 0C18.3222 0 12.0443 2.60043 7.32234 7.32234C2.60043 12.0443 0 18.3222 0 25C0 31.6778 2.60043 37.9559 7.32234 42.6777C12.0443 47.3996 18.3222 50 25 50C31.6778 50 37.9557 47.3996 42.6777 42.6777C47.3996 37.9559 50 31.6778 50 25C50 18.3222 47.3996 12.0443 42.6777 7.32234ZM25 48.4043C12.0948 48.4043 1.59574 37.9052 1.59574 25C1.59574 12.0949 12.0948 1.59574 25 1.59574C37.9052 1.59574 48.4043 12.0949 48.4043 25C48.4043 37.9052 37.9052 48.4043 25 48.4043Z" fill="#3F8CEE"/>
<path d="M29.6455 13.6903C29.2048 13.6903 28.8477 14.0475 28.8477 14.4882V15.4456C28.8477 15.8863 29.2048 16.2435 29.6455 16.2435C30.0863 16.2435 30.4434 15.8863 30.4434 15.4456V14.4882C30.4434 14.0475 30.0862 13.6903 29.6455 13.6903Z" fill="#3F8CEE"/>
<path d="M44.6162 31.4794H42.6922C42.2514 31.4794 41.8943 31.8366 41.8943 32.2772V36.173C41.8943 36.6136 42.2514 36.9709 42.6922 36.9709C43.1329 36.9709 43.49 36.6136 43.49 36.173V33.0751H44.6162C45.0569 33.0751 45.4141 32.7179 45.4141 32.2772C45.4141 31.8366 45.0569 31.4794 44.6162 31.4794Z" fill="#3F8CEE"/>
<path d="M16.8472 34.9061H15.2702C15.2039 31.6334 12.5212 28.9919 9.23298 28.9919C8.76319 28.9919 8.30287 29.0455 7.8583 29.148V27.9473C9.16 27.5952 10.1209 26.4045 10.1209 24.993V24.0601C11.3157 24.0891 13.3464 24.0668 15.2486 24.0328V24.2835C15.2486 24.7242 15.6057 25.0814 16.0465 25.0814C16.4872 25.0814 16.8444 24.7242 16.8444 24.2835V23.2214C16.8444 23.2188 16.8444 12.6677 16.8444 12.6677C17.9624 12.0348 18.6817 10.8329 18.6817 9.52237C18.6817 7.53141 17.0619 5.91162 15.071 5.91162H14.5749C14.1341 5.91162 13.777 6.26886 13.777 6.70949C13.777 7.15013 14.1341 7.50737 14.5749 7.50737H15.071C16.182 7.50737 17.086 8.4113 17.086 9.52237C17.086 10.362 16.557 11.1218 15.7697 11.4129C15.4566 11.5287 15.2486 11.8274 15.2486 12.1612V22.4365C12.5987 22.4825 9.89819 22.4959 9.49362 22.4402C9.26298 22.3898 9.02138 22.4439 8.83415 22.5891C8.63915 22.7402 8.52511 22.973 8.52511 23.2197V24.993C8.52511 25.8006 7.86809 26.4577 7.06043 26.4577C6.25277 26.4577 5.59574 25.8007 5.59574 24.993V18.8986C5.59574 18.458 5.23862 18.1008 4.79787 18.1008C4.35713 18.1008 4 18.458 4 18.8986V24.993C4 26.4045 4.96074 27.5952 6.26255 27.9473V29.768C5.55362 30.1691 4.92372 30.7166 4.41277 31.3926C4.14713 31.7441 4.2167 32.2445 4.56819 32.5101C4.91968 32.7758 5.42011 32.7062 5.68585 32.3547C6.53468 31.2317 7.82745 30.5877 9.23298 30.5877C11.6827 30.5877 13.6757 32.5807 13.6757 35.0305V35.704C13.6757 36.1446 14.0329 36.5018 14.4736 36.5018H16.8473C18.3672 36.5018 19.6038 37.7384 19.6038 39.2584C19.6038 40.5559 18.6839 41.6903 17.4163 41.956C17.0467 42.0334 16.782 42.3593 16.782 42.7368V44.6932C16.782 45.1339 17.1391 45.4911 17.5799 45.4911C18.0206 45.4911 18.3778 45.1339 18.3778 44.6932V43.333C20.0457 42.7045 21.1995 41.0834 21.1995 39.2584C21.1995 36.8585 19.247 34.9061 16.8472 34.9061Z" fill="#3F8CEE"/>
<path d="M24.9052 8.51061C27.4165 8.51061 29.7782 7.28178 31.2226 5.22348C31.4757 4.86274 31.3885 4.36518 31.0277 4.1121C30.6668 3.85891 30.1694 3.94635 29.9163 4.30699C28.7704 5.93986 26.8971 6.91486 24.9052 6.91486C22.9133 6.91486 21.04 5.93997 19.8941 4.3071C19.6411 3.94646 19.1436 3.85901 18.7827 4.11231C18.422 4.3654 18.3348 4.86306 18.588 5.22369C20.0323 7.28189 22.394 8.51061 24.9052 8.51061Z" fill="#3F8CEE"/>
<path d="M11.931 26.3201V26.6354C11.931 27.076 12.2882 27.4333 12.7289 27.4333C13.1696 27.4333 13.5268 27.076 13.5268 26.6354V26.3201C13.5268 25.8795 13.1696 25.5222 12.7289 25.5222C12.2882 25.5222 11.931 25.8795 11.931 26.3201Z" fill="#3F8CEE"/>
<path d="M45.2756 28.7057V25.4798C45.2756 25.0392 44.9185 24.682 44.4778 24.682C42.9305 24.682 41.523 23.7678 40.8918 22.3531C40.7635 22.0655 40.478 21.8804 40.1631 21.8804L32.2625 21.8806C31.9797 21.8806 31.7179 22.0304 31.5746 22.2743C31.229 22.8625 30.5913 23.2279 29.9101 23.2279C28.8467 23.2279 27.9816 22.3628 27.9816 21.2994V20.0056H32.6365C33.0772 20.0056 33.4343 19.6484 33.4343 19.2077V16.5803C33.4343 15.8233 34.0723 15.0488 34.8137 14.8897H39.2592C39.7 14.8897 40.0571 14.5325 40.0571 14.0919V11.448H40.2381C40.6788 11.448 41.0359 11.0908 41.0359 10.6502C41.0359 10.2095 40.6788 9.85229 40.2381 9.85229H37.1316C36.6908 9.85229 36.3337 10.2095 36.3337 10.6502C36.3337 11.0908 36.6908 11.448 37.1316 11.448H38.4614V13.294H34.7388C34.6941 13.294 34.6496 13.2977 34.6055 13.3052C33.054 13.568 31.8386 15.0065 31.8386 16.5803V18.4098H27.1837C26.743 18.4098 26.3858 18.7671 26.3858 19.2077V21.2994C26.3858 23.2427 27.9668 24.8237 29.9101 24.8237C30.9943 24.8237 32.0184 24.3171 32.6814 23.4763L39.6731 23.4761C40.5151 24.9621 42.0004 25.9739 43.6798 26.2197V27.9078H34.3665C33.6336 26.6929 32.312 25.9328 30.8681 25.9328C29.1007 25.9328 27.5589 27.0536 27.0007 28.6992C25.3003 29.7108 24.2582 31.5287 24.2582 33.5242C24.2582 36.6211 26.7778 39.1406 29.8746 39.1406H30.4536V41.4761C30.4536 42.7799 30.8129 44.0459 31.4924 45.1375C31.6437 45.3804 31.904 45.5138 32.1705 45.5138C32.3146 45.5138 32.4603 45.4748 32.5915 45.3931C32.9656 45.1603 33.08 44.6683 32.8471 44.2941C32.3252 43.4559 32.0493 42.4814 32.0493 41.4761V38.3427C32.0493 37.9021 31.6922 37.5448 31.2515 37.5448H29.8746C27.6575 37.5448 25.8539 35.7412 25.8539 33.5242C25.8539 32.0112 26.6913 30.6406 28.0393 29.9473C28.2452 29.8414 28.3949 29.6514 28.4496 29.4265C28.7218 28.309 29.7162 27.5285 30.868 27.5285C31.8586 27.5285 32.7547 28.1157 33.151 29.0245C33.2779 29.3154 33.5651 29.5035 33.8824 29.5035H44.4775C44.9185 29.5036 45.2756 29.1464 45.2756 28.7057Z" fill="#3F8CEE"/>
</svg>