<svg width="46" height="50" viewBox="0 0 46 50" fill="none" xmlns="http://www.w3.org/2000/svg">
<path d="M45.5409 45.7333L44.1246 37.7912C43.7474 35.65 41.783 33.6247 39.6555 33.167L32.3833 31.6407L30.8904 28.5782C30.8118 28.4171 30.6762 28.2992 30.5211 28.2089C31.8274 26.5293 32.8724 24.5354 33.6268 22.5317C34.9292 22.0603 36.2394 20.8973 36.6146 19.3887C37.1215 17.3791 36.5891 15.5836 35.3456 14.8116V11.9357C35.3437 5.01906 30.0673 0 22.8029 0C15.5346 0 10.2621 5.01906 10.2621 11.9357V14.8136C9.01671 15.5856 8.48436 17.3811 8.98724 19.3867C9.36637 20.9032 10.6865 22.0721 11.9928 22.5376C12.7353 24.5433 13.7725 26.5313 15.073 28.2187C14.9256 28.3071 14.794 28.419 14.7174 28.5762L13.2245 31.6348L5.95027 33.1651C3.82282 33.6169 1.85842 35.6441 1.47929 37.7853L0.064916 45.7274C-0.135453 46.8471 0.131706 47.9138 0.815319 48.731C1.49893 49.5482 2.50078 50 3.64013 50H41.9578C43.0972 50 44.101 49.5502 44.7826 48.731C45.4761 47.9217 45.7393 46.855 45.5409 45.7333ZM43.4351 47.6015C43.0932 48.0081 42.5746 48.234 41.9637 48.234H34.5834V43.9712C34.5834 43.4841 34.1866 43.0853 33.6995 43.0853C33.2123 43.0853 32.8174 43.4841 32.8174 43.9712V48.234H12.7943V43.9712C12.7943 43.4841 12.3975 43.0853 11.9103 43.0853C11.4231 43.0853 11.0263 43.4841 11.0263 43.9712V48.234H3.64799C3.04099 48.234 2.51846 48.0081 2.17665 47.6015C1.83485 47.1948 1.70519 46.6428 1.81127 46.0437L3.22564 38.1016C3.48102 36.6695 4.89932 35.2021 6.32155 34.9016L13.0929 33.4715C13.1302 33.5049 13.1577 33.5403 13.2009 33.5678L20.5419 37.8148C20.6774 37.8953 20.8306 37.9366 20.9858 37.9366C21.0723 37.9366 21.1587 37.9248 21.2432 37.8953C21.4769 37.8286 21.6714 37.6576 21.7794 37.4416L22.8049 35.3396L23.8303 37.4416C23.9383 37.6576 24.1308 37.8286 24.3646 37.8953C24.4491 37.9248 24.5355 37.9366 24.6219 37.9366C24.7771 37.9366 24.9284 37.8953 25.0679 37.8148L32.4088 33.5678C32.4501 33.5403 32.4776 33.5049 32.5169 33.4715L39.2882 34.9016C40.7144 35.2021 42.1268 36.6637 42.3821 38.1016L43.7985 46.0437C43.9085 46.6428 43.7769 47.1948 43.4351 47.6015ZM15.4246 31.1771L15.8961 30.2145L16.9942 30.8471L18.1394 31.511L19.2847 32.1711L21.7048 33.5717L20.6087 35.817L15.6407 32.9391L14.7999 32.4559L14.9315 32.1868L15.4246 31.1771ZM30.1871 31.1771L30.6782 32.1868L30.8098 32.4559L29.9691 32.9391L25.003 35.817L23.9069 33.5717L26.327 32.1711L27.4723 31.511L28.6175 30.8471L29.7176 30.2145L30.1871 31.1771ZM13.3541 20.9484C12.6587 21.0977 11.0617 20.2235 10.7415 18.9565C10.4173 17.6679 10.7257 16.4597 11.429 16.2633C11.6372 16.2024 11.8533 16.2476 12.0714 16.3635V11.9436C12.0714 5.69285 16.8763 1.81904 22.8049 1.81904C28.7374 1.81904 33.5403 5.69481 33.5403 11.9436V16.3674C33.7545 16.2476 33.9745 16.2024 34.1807 16.2633C34.8801 16.4597 35.1944 17.6679 34.8702 18.9565C34.5559 20.2157 32.9648 21.082 32.2772 20.9484C31.1909 24.2525 28.8395 28.6332 25.4352 30.2067C24.618 30.5819 23.7439 30.8058 22.8108 30.8058C21.8639 30.8058 20.9819 30.5878 20.1608 30.2106C16.7525 28.6548 14.4444 24.3311 13.3541 20.9484Z" fill="#3F8CEE"/>
</svg>
