<svg width="28" height="27" viewBox="0 0 28 27" fill="none" xmlns="http://www.w3.org/2000/svg">
<path d="M1 20C1 18.8954 1.89543 18 3 18H6.33333C7.4379 18 8.33333 18.8954 8.33333 20V23.3333C8.33333 24.4379 7.4379 25.3333 6.33333 25.3333H3C1.89543 25.3333 1 24.4379 1 23.3333V20Z" fill="#49546A" stroke="#E7E9EC" stroke-width="2" stroke-linecap="round" stroke-linejoin="round"/>
<path d="M19 3C19 1.89543 19.8954 1 21 1H24.3333C25.4379 1 26.3333 1.89543 26.3333 3V6.33333C26.3333 7.4379 25.4379 8.33333 24.3333 8.33333H21C19.8954 8.33333 19 7.4379 19 6.33333V3Z" fill="#49546A" stroke="#E7E9EC" stroke-width="2" stroke-linecap="round" stroke-linejoin="round"/>
<path d="M19 11.3333C19 10.2287 19.8954 9.33325 21 9.33325H24.3333C25.4379 9.33325 26.3333 10.2287 26.3333 11.3333V14.6666C26.3333 15.7712 25.4379 16.6666 24.3333 16.6666H21C19.8954 16.6666 19 15.7712 19 14.6666V11.3333Z" fill="#49546A" stroke="#E7E9EC" stroke-width="2" stroke-linecap="round" stroke-linejoin="round"/>
<path d="M10 11.3333C10 10.2287 10.8954 9.33325 12 9.33325H15.3333C16.4379 9.33325 17.3333 10.2287 17.3333 11.3333V14.6666C17.3333 15.7712 16.4379 16.6666 15.3333 16.6666H12C10.8954 16.6666 10 15.7712 10 14.6666V11.3333Z" fill="#49546A" stroke="#E7E9EC" stroke-width="2" stroke-linecap="round" stroke-linejoin="round"/>
<path d="M1 11.3333C1 10.2287 1.89543 9.33325 3 9.33325H6.33333C7.4379 9.33325 8.33333 10.2287 8.33333 11.3333V14.6666C8.33333 15.7712 7.4379 16.6666 6.33333 16.6666H3C1.89543 16.6666 1 15.7712 1 14.6666V11.3333Z" fill="#49546A" stroke="#E7E9EC" stroke-width="2" stroke-linecap="round" stroke-linejoin="round"/>
</svg>
