<svg width="33" height="50" viewBox="0 0 33 50" fill="none" xmlns="http://www.w3.org/2000/svg" >
<path d="M28.0709 4.87816C25.024 1.79212 20.9596 0.0601769 16.6263 0.00148527C14.4425 -0.0279094 12.3049 0.379123 10.2755 1.21174C9.84047 1.39026 9.63247 1.88762 9.81108 2.32278C9.9896 2.75784 10.487 2.96595 10.9221 2.78724C12.7379 2.04222 14.6504 1.67639 16.6033 1.70432C20.4863 1.75686 24.1284 3.30892 26.8591 6.07455C29.5921 8.84273 31.0974 12.5098 31.0974 16.4003C31.0974 19.5329 30.1246 22.5231 28.2842 25.0479C28.2691 25.0681 28.2551 25.0892 28.2422 25.1109L28.0782 25.3839C27.3052 26.6708 26.6374 27.7823 26.0659 28.7777C25.8317 29.1855 25.9725 29.706 26.3803 29.9402C26.5139 30.0169 26.6597 30.0534 26.8035 30.0534C27.0984 30.0534 27.3853 29.8999 27.5428 29.6257C28.106 28.6449 28.7696 27.5402 29.5381 26.261L29.6828 26.0199C31.7225 23.2084 32.8003 19.883 32.8003 16.4002C32.8004 12.059 31.1208 7.96704 28.0709 4.87816Z" fill="#3F8CEE"/>
<path d="M26.4757 38.2156C26.4757 37.1193 25.8946 36.1565 25.0244 35.618C25.1963 34.6557 25.4839 33.7423 25.9361 32.7134C26.1254 32.2829 25.9298 31.7805 25.4992 31.5913C25.0688 31.4021 24.5663 31.5976 24.377 32.0282C23.8993 33.115 23.5757 34.1262 23.3767 35.1628H15.6609C15.1906 35.1628 14.8093 35.544 14.8093 36.0143C14.8093 36.4846 15.1906 36.8659 15.6609 36.8659H23.4227C23.4649 36.8659 23.5065 36.8684 23.5478 36.8722C23.5586 36.8732 23.5693 36.8746 23.5801 36.8759C23.6132 36.8797 23.6459 36.8846 23.6783 36.8908C23.6866 36.8924 23.695 36.8937 23.7033 36.8956C24.3135 37.0252 24.7728 37.5677 24.7728 38.2158C24.7728 38.9601 24.1673 39.5658 23.4228 39.5658H9.37806C8.63372 39.5658 8.02815 38.9602 8.02815 38.2158C8.02815 37.5677 8.48753 37.0251 9.09779 36.8956C9.10599 36.8939 9.11429 36.8926 9.12239 36.8909C9.15491 36.8846 9.18773 36.8797 9.22083 36.8758C9.23148 36.8745 9.24232 36.8731 9.25296 36.8722C9.29417 36.8682 9.33587 36.8658 9.37806 36.8658H12.2994C12.7697 36.8658 13.1509 36.4846 13.1509 36.0142C13.1509 35.5439 12.7697 35.1627 12.2994 35.1627H9.42396C8.87562 32.2987 7.42688 29.8867 4.72677 25.392L4.55802 25.1112C4.54494 25.0895 4.53097 25.0685 4.51613 25.0479C2.67569 22.5232 1.70294 19.5328 1.70294 16.4003C1.70294 11.6743 4.05119 7.18982 7.9846 4.40456C8.36839 4.13278 8.45921 3.60124 8.18733 3.21754C7.91546 2.83375 7.38391 2.74283 7.00032 3.01481C2.6169 6.11892 0 11.1229 0 16.4005C0 19.8831 1.07784 23.2086 3.11749 26.0203L3.267 26.2691C5.98869 30.8001 7.30686 32.9957 7.77581 35.6184C6.90598 36.157 6.32502 37.1196 6.32502 38.2157C6.32502 39.0802 6.68674 39.8612 7.26614 40.4172C6.68674 40.9731 6.32502 41.7542 6.32502 42.6187C6.32502 44.3021 7.69466 45.6717 9.37806 45.6717H10.7668C11.4369 48.1851 13.7382 50 16.4003 50C19.0625 50 21.3638 48.185 22.0339 45.6717H23.4227C25.1061 45.6717 26.4758 44.3021 26.4758 42.6187C26.4758 41.7542 26.1141 40.9731 25.5347 40.4172C26.114 39.8611 26.4757 39.0801 26.4757 38.2156ZM16.4004 48.2971C14.6741 48.2971 13.1617 47.2196 12.5553 45.6718H20.2457C19.6392 47.2195 18.1266 48.2971 16.4004 48.2971ZM23.4228 43.9686H9.37806C8.63372 43.9686 8.02815 43.363 8.02815 42.6186C8.02815 41.8741 8.63372 41.2686 9.37806 41.2686H23.4228C24.1672 41.2686 24.7728 41.8741 24.7728 42.6186C24.7728 43.363 24.1672 43.9686 23.4228 43.9686Z" fill="#3F8CEE"/>
</svg>
