
<svg width="46" height="46" viewBox="0 0 46 46" fill="none" xmlns="http://www.w3.org/2000/svg">
<circle cx="23" cy="23" r="22.15" fill="white" stroke="#3F8CEE" stroke-width="1.7"/>
<path d="M14.1725 25.286H19.5325L20.9325 29.766H22.8925L17.9125 15.106H15.8525L10.8725 29.766H12.7525L14.1725 25.286ZM18.3725 21.566L19.0725 23.806H14.6325L15.3525 21.566C15.6192 20.726 15.8725 19.9127 16.1125 19.126C16.3525 18.326 16.5858 17.486 16.8125 16.606H16.8925C17.1325 17.4593 17.3725 18.2927 17.6125 19.106C17.8525 19.906 18.1058 20.726 18.3725 21.566ZM26.3009 18.906H24.8009V29.766H26.6209V21.886C27.1676 21.3393 27.6609 20.926 28.1009 20.646C28.5409 20.366 29.0409 20.226 29.6009 20.226C30.3209 20.226 30.8409 20.4527 31.1609 20.906C31.4943 21.346 31.6609 22.086 31.6609 23.126V29.766H33.4809V22.886C33.4809 21.4727 33.2209 20.4127 32.7009 19.706C32.1809 18.986 31.3343 18.626 30.1609 18.626C29.4143 18.626 28.7476 18.806 28.1609 19.166C27.5876 19.526 27.0409 19.9593 26.5209 20.466H26.4609L26.3009 18.906Z" fill="#3F8CEE"/>
</svg>
