<svg width="19" height="28" viewBox="0 0 19 28" fill="none" xmlns="http://www.w3.org/2000/svg">
<path d="M10 21C10 19.8954 10.8954 19 12 19H16C17.1046 19 18 19.8954 18 21V25C18 26.1046 17.1046 27 16 27H12C10.8954 27 10 26.1046 10 25V21Z" fill="#49546A" stroke="#E7E9EC" stroke-width="2" stroke-linecap="round" stroke-linejoin="round"/>
<path d="M1 3C1 1.89543 1.89543 1 3 1H7C8.10457 1 9 1.89543 9 3V7C9 8.10457 8.10457 9 7 9H3C1.89543 9 1 8.10457 1 7V3Z" fill="#49546A" stroke="#E7E9EC" stroke-width="2" stroke-linecap="round" stroke-linejoin="round"/>
<path d="M1 12C1 10.8954 1.89543 10 3 10H7C8.10457 10 9 10.8954 9 12V16C9 17.1046 8.10457 18 7 18H3C1.89543 18 1 17.1046 1 16V12Z" fill="#49546A" stroke="#E7E9EC" stroke-width="2" stroke-linecap="round" stroke-linejoin="round"/>
<path d="M1 21C1 19.8954 1.89543 19 3 19H7C8.10457 19 9 19.8954 9 21V25C9 26.1046 8.10457 27 7 27H3C1.89543 27 1 26.1046 1 25V21Z" fill="#49546A" stroke="#E7E9EC" stroke-width="2" stroke-linecap="round" stroke-linejoin="round"/>
</svg>
